<mxfile host="app.diagrams.net" modified="2023-06-23T22:25:39.342Z" agent="Mozilla/5.0 (Windows NT 10.0; Win64; x64) AppleWebKit/537.36 (KHTML, like Gecko) Chrome/114.0.0.0 Safari/537.36" etag="-UciGGe19fqTM9-zFdUD" version="21.5.0" type="device">
  <diagram name="PÃ¡gina-1" id="ZwRMz1mYYV2eggnPeNGR">
    <mxGraphModel dx="2852" dy="1047" grid="1" gridSize="10" guides="1" tooltips="1" connect="1" arrows="1" fold="1" page="1" pageScale="1" pageWidth="827" pageHeight="1169" math="0" shadow="0">
      <root>
        <mxCell id="0" />
        <mxCell id="1" parent="0" />
        <mxCell id="dmJ20hJk-4laYnwwjy2d-149" value="" style="rounded=1;arcSize=10;fillColor=none;gradientColor=none;strokeWidth=2;" parent="1" vertex="1">
          <mxGeometry x="1817.1999999999998" y="490.21999999999997" width="230" height="57.93" as="geometry" />
        </mxCell>
        <mxCell id="dmJ20hJk-4laYnwwjy2d-206" value="" style="rounded=1;whiteSpace=wrap;html=1;fillColor=none;" parent="1" vertex="1">
          <mxGeometry x="1550" y="237" width="520" height="327.02" as="geometry" />
        </mxCell>
        <mxCell id="dmJ20hJk-4laYnwwjy2d-142" value="" style="rounded=1;arcSize=10;fillColor=none;gradientColor=none;strokeWidth=2;fontStyle=1" parent="1" vertex="1">
          <mxGeometry x="920" y="194" width="1173.41" height="397" as="geometry" />
        </mxCell>
        <mxCell id="dmJ20hJk-4laYnwwjy2d-207" style="edgeStyle=orthogonalEdgeStyle;rounded=0;orthogonalLoop=1;jettySize=auto;html=1;" parent="1" source="dmJ20hJk-4laYnwwjy2d-197" target="dmJ20hJk-4laYnwwjy2d-206" edge="1">
          <mxGeometry relative="1" as="geometry" />
        </mxCell>
        <mxCell id="dmJ20hJk-4laYnwwjy2d-197" value="" style="rounded=1;whiteSpace=wrap;html=1;fillColor=none;" parent="1" vertex="1">
          <mxGeometry x="1085" y="471.25" width="421.41" height="100" as="geometry" />
        </mxCell>
        <mxCell id="dmJ20hJk-4laYnwwjy2d-204" style="edgeStyle=orthogonalEdgeStyle;rounded=0;orthogonalLoop=1;jettySize=auto;html=1;exitX=0.5;exitY=1;exitDx=0;exitDy=0;" parent="1" source="dmJ20hJk-4laYnwwjy2d-194" target="dmJ20hJk-4laYnwwjy2d-197" edge="1">
          <mxGeometry relative="1" as="geometry" />
        </mxCell>
        <mxCell id="dmJ20hJk-4laYnwwjy2d-194" value="" style="rounded=1;whiteSpace=wrap;html=1;fillColor=none;" parent="1" vertex="1">
          <mxGeometry x="1085" y="239.23" width="421.41" height="190.77" as="geometry" />
        </mxCell>
        <mxCell id="dmJ20hJk-4laYnwwjy2d-42" value="" style="rounded=1;arcSize=10;fillColor=none;gradientColor=none;strokeWidth=2;" parent="1" vertex="1">
          <mxGeometry x="2164.64" y="224.55" width="181.36" height="321.72" as="geometry" />
        </mxCell>
        <mxCell id="dmJ20hJk-4laYnwwjy2d-103" value="" style="rounded=1;arcSize=10;fillColor=none;gradientColor=none;strokeWidth=2;fontStyle=1" parent="1" vertex="1">
          <mxGeometry x="195" y="182" width="670" height="236" as="geometry" />
        </mxCell>
        <mxCell id="dmJ20hJk-4laYnwwjy2d-12" style="edgeStyle=orthogonalEdgeStyle;rounded=0;orthogonalLoop=1;jettySize=auto;html=1;entryX=0;entryY=0.25;entryDx=0;entryDy=0;entryPerimeter=0;exitX=1;exitY=0.5;exitDx=0;exitDy=0;" parent="1" source="dmJ20hJk-4laYnwwjy2d-1" target="dmJ20hJk-4laYnwwjy2d-8" edge="1">
          <mxGeometry relative="1" as="geometry">
            <Array as="points">
              <mxPoint x="118" y="220" />
              <mxPoint x="180" y="220" />
              <mxPoint x="180" y="286" />
            </Array>
          </mxGeometry>
        </mxCell>
        <mxCell id="dmJ20hJk-4laYnwwjy2d-1" value="" style="shape=image;html=1;verticalAlign=top;verticalLabelPosition=bottom;labelBackgroundColor=#ffffff;imageAspect=0;aspect=fixed;image=https://cdn0.iconfinder.com/data/icons/construction-2-21/512/construction-industry-building-08-128.png" parent="1" vertex="1">
          <mxGeometry x="60" y="194" width="58" height="58" as="geometry" />
        </mxCell>
        <mxCell id="dmJ20hJk-4laYnwwjy2d-11" value="" style="edgeStyle=orthogonalEdgeStyle;rounded=0;orthogonalLoop=1;jettySize=auto;html=1;entryX=0;entryY=0.422;entryDx=0;entryDy=0;entryPerimeter=0;" parent="1" source="dmJ20hJk-4laYnwwjy2d-4" target="dmJ20hJk-4laYnwwjy2d-8" edge="1">
          <mxGeometry relative="1" as="geometry" />
        </mxCell>
        <mxCell id="dmJ20hJk-4laYnwwjy2d-4" value="" style="shape=image;html=1;verticalAlign=top;verticalLabelPosition=bottom;labelBackgroundColor=#ffffff;imageAspect=0;aspect=fixed;image=https://cdn0.iconfinder.com/data/icons/construction-2-21/512/construction-industry-building-08-128.png" parent="1" vertex="1">
          <mxGeometry x="60" y="268" width="58" height="58" as="geometry" />
        </mxCell>
        <mxCell id="dmJ20hJk-4laYnwwjy2d-13" style="edgeStyle=orthogonalEdgeStyle;rounded=0;orthogonalLoop=1;jettySize=auto;html=1;entryX=-0.016;entryY=0.625;entryDx=0;entryDy=0;entryPerimeter=0;" parent="1" source="dmJ20hJk-4laYnwwjy2d-6" target="dmJ20hJk-4laYnwwjy2d-8" edge="1">
          <mxGeometry relative="1" as="geometry">
            <Array as="points">
              <mxPoint x="180" y="369" />
              <mxPoint x="180" y="310" />
            </Array>
          </mxGeometry>
        </mxCell>
        <mxCell id="dmJ20hJk-4laYnwwjy2d-6" value="" style="shape=image;html=1;verticalAlign=top;verticalLabelPosition=bottom;labelBackgroundColor=#ffffff;imageAspect=0;aspect=fixed;image=https://cdn0.iconfinder.com/data/icons/construction-2-21/512/construction-industry-building-08-128.png" parent="1" vertex="1">
          <mxGeometry x="60" y="340" width="58" height="58" as="geometry" />
        </mxCell>
        <mxCell id="dmJ20hJk-4laYnwwjy2d-17" style="edgeStyle=orthogonalEdgeStyle;rounded=0;orthogonalLoop=1;jettySize=auto;html=1;" parent="1" source="dmJ20hJk-4laYnwwjy2d-8" target="dmJ20hJk-4laYnwwjy2d-16" edge="1">
          <mxGeometry relative="1" as="geometry" />
        </mxCell>
        <mxCell id="dmJ20hJk-4laYnwwjy2d-229" style="edgeStyle=orthogonalEdgeStyle;rounded=0;orthogonalLoop=1;jettySize=auto;html=1;entryX=0;entryY=0.5;entryDx=0;entryDy=0;startArrow=classic;startFill=1;" parent="1" source="dmJ20hJk-4laYnwwjy2d-8" target="dmJ20hJk-4laYnwwjy2d-111" edge="1">
          <mxGeometry relative="1" as="geometry">
            <Array as="points">
              <mxPoint x="290" y="664" />
            </Array>
          </mxGeometry>
        </mxCell>
        <mxCell id="dmJ20hJk-4laYnwwjy2d-8" value="" style="image;aspect=fixed;html=1;points=[];align=center;fontSize=12;image=img/lib/azure2/iot/IoT_Hub.svg;" parent="1" vertex="1">
          <mxGeometry x="253" y="270" width="64" height="64" as="geometry" />
        </mxCell>
        <mxCell id="dmJ20hJk-4laYnwwjy2d-10" value="IoT Hub" style="text;html=1;strokeColor=none;fillColor=none;align=center;verticalAlign=middle;whiteSpace=wrap;rounded=0;" parent="1" vertex="1">
          <mxGeometry x="258.63" y="237" width="60" height="30" as="geometry" />
        </mxCell>
        <mxCell id="dmJ20hJk-4laYnwwjy2d-22" style="edgeStyle=orthogonalEdgeStyle;rounded=0;orthogonalLoop=1;jettySize=auto;html=1;" parent="1" source="dmJ20hJk-4laYnwwjy2d-16" target="dmJ20hJk-4laYnwwjy2d-20" edge="1">
          <mxGeometry relative="1" as="geometry" />
        </mxCell>
        <mxCell id="dmJ20hJk-4laYnwwjy2d-16" value="" style="image;aspect=fixed;html=1;points=[];align=center;fontSize=12;image=img/lib/azure2/databases/SQL_Database.svg;" parent="1" vertex="1">
          <mxGeometry x="393" y="275" width="40.5" height="54" as="geometry" />
        </mxCell>
        <mxCell id="dmJ20hJk-4laYnwwjy2d-18" value="" style="shape=curlyBracket;whiteSpace=wrap;html=1;rounded=1;flipH=1;labelPosition=right;verticalLabelPosition=middle;align=left;verticalAlign=middle;rotation=-90;" parent="1" vertex="1">
          <mxGeometry x="444.25" y="-251.25" width="20" height="822.5" as="geometry" />
        </mxCell>
        <mxCell id="dmJ20hJk-4laYnwwjy2d-19" value="Pipes and Filter" style="text;html=1;strokeColor=none;fillColor=none;align=center;verticalAlign=middle;whiteSpace=wrap;rounded=0;" parent="1" vertex="1">
          <mxGeometry x="380.5" y="120" width="110" height="30" as="geometry" />
        </mxCell>
        <mxCell id="dmJ20hJk-4laYnwwjy2d-24" style="edgeStyle=orthogonalEdgeStyle;rounded=0;orthogonalLoop=1;jettySize=auto;html=1;" parent="1" source="dmJ20hJk-4laYnwwjy2d-20" target="dmJ20hJk-4laYnwwjy2d-23" edge="1">
          <mxGeometry relative="1" as="geometry" />
        </mxCell>
        <mxCell id="dmJ20hJk-4laYnwwjy2d-154" style="edgeStyle=orthogonalEdgeStyle;rounded=0;orthogonalLoop=1;jettySize=auto;html=1;entryX=0;entryY=0.5;entryDx=0;entryDy=0;" parent="1" source="dmJ20hJk-4laYnwwjy2d-20" target="dmJ20hJk-4laYnwwjy2d-184" edge="1">
          <mxGeometry relative="1" as="geometry">
            <Array as="points">
              <mxPoint x="580" y="330" />
              <mxPoint x="580" y="460" />
              <mxPoint x="880" y="460" />
              <mxPoint x="880" y="355" />
            </Array>
          </mxGeometry>
        </mxCell>
        <mxCell id="dmJ20hJk-4laYnwwjy2d-20" value="" style="image;aspect=fixed;html=1;points=[];align=center;fontSize=12;image=img/lib/azure2/databases/Data_Factory.svg;" parent="1" vertex="1">
          <mxGeometry x="504" y="274" width="56" height="56" as="geometry" />
        </mxCell>
        <mxCell id="dmJ20hJk-4laYnwwjy2d-21" value="ETL" style="text;html=1;strokeColor=none;fillColor=none;align=center;verticalAlign=middle;whiteSpace=wrap;rounded=0;" parent="1" vertex="1">
          <mxGeometry x="502" y="238" width="60" height="30" as="geometry" />
        </mxCell>
        <mxCell id="dmJ20hJk-4laYnwwjy2d-23" value="" style="image;aspect=fixed;html=1;points=[];align=center;fontSize=12;image=img/lib/azure2/databases/Cache_Redis.svg;" parent="1" vertex="1">
          <mxGeometry x="620" y="276" width="64" height="52" as="geometry" />
        </mxCell>
        <mxCell id="dmJ20hJk-4laYnwwjy2d-25" value="Sql" style="text;html=1;strokeColor=none;fillColor=none;align=center;verticalAlign=middle;whiteSpace=wrap;rounded=0;" parent="1" vertex="1">
          <mxGeometry x="384" y="238" width="60" height="30" as="geometry" />
        </mxCell>
        <mxCell id="dmJ20hJk-4laYnwwjy2d-26" value="Base de datos" style="text;html=1;strokeColor=none;fillColor=none;align=center;verticalAlign=middle;whiteSpace=wrap;rounded=0;" parent="1" vertex="1">
          <mxGeometry x="383.25" y="340" width="60" height="30" as="geometry" />
        </mxCell>
        <mxCell id="dmJ20hJk-4laYnwwjy2d-27" value="Data FActory" style="text;html=1;strokeColor=none;fillColor=none;align=center;verticalAlign=middle;whiteSpace=wrap;rounded=0;" parent="1" vertex="1">
          <mxGeometry x="500" y="340" width="60" height="30" as="geometry" />
        </mxCell>
        <mxCell id="dmJ20hJk-4laYnwwjy2d-28" value="Cubos Dimensionales" style="text;html=1;strokeColor=none;fillColor=none;align=center;verticalAlign=middle;whiteSpace=wrap;rounded=0;" parent="1" vertex="1">
          <mxGeometry x="624" y="238" width="60" height="30" as="geometry" />
        </mxCell>
        <mxCell id="dmJ20hJk-4laYnwwjy2d-29" value="Datamart" style="text;html=1;strokeColor=none;fillColor=none;align=center;verticalAlign=middle;whiteSpace=wrap;rounded=0;" parent="1" vertex="1">
          <mxGeometry x="620" y="340" width="60" height="30" as="geometry" />
        </mxCell>
        <mxCell id="dmJ20hJk-4laYnwwjy2d-31" style="edgeStyle=orthogonalEdgeStyle;rounded=0;orthogonalLoop=1;jettySize=auto;html=1;entryX=0.984;entryY=0.346;entryDx=0;entryDy=0;entryPerimeter=0;" parent="1" source="dmJ20hJk-4laYnwwjy2d-30" target="dmJ20hJk-4laYnwwjy2d-23" edge="1">
          <mxGeometry relative="1" as="geometry">
            <Array as="points">
              <mxPoint x="730" y="230" />
              <mxPoint x="730" y="294" />
            </Array>
          </mxGeometry>
        </mxCell>
        <mxCell id="dmJ20hJk-4laYnwwjy2d-30" value="" style="verticalLabelPosition=bottom;sketch=0;aspect=fixed;html=1;verticalAlign=top;strokeColor=none;align=center;outlineConnect=0;shape=mxgraph.citrix.reporting;" parent="1" vertex="1">
          <mxGeometry x="780" y="198" width="61.5" height="69" as="geometry" />
        </mxCell>
        <mxCell id="dmJ20hJk-4laYnwwjy2d-36" style="edgeStyle=orthogonalEdgeStyle;rounded=0;orthogonalLoop=1;jettySize=auto;html=1;entryX=0.938;entryY=0.654;entryDx=0;entryDy=0;entryPerimeter=0;" parent="1" source="dmJ20hJk-4laYnwwjy2d-33" target="dmJ20hJk-4laYnwwjy2d-23" edge="1">
          <mxGeometry relative="1" as="geometry" />
        </mxCell>
        <mxCell id="dmJ20hJk-4laYnwwjy2d-33" value="" style="verticalLabelPosition=bottom;sketch=0;aspect=fixed;html=1;verticalAlign=top;strokeColor=none;align=center;outlineConnect=0;shape=mxgraph.citrix.reporting;" parent="1" vertex="1">
          <mxGeometry x="780" y="271" width="61.5" height="69" as="geometry" />
        </mxCell>
        <mxCell id="dmJ20hJk-4laYnwwjy2d-37" style="edgeStyle=orthogonalEdgeStyle;rounded=0;orthogonalLoop=1;jettySize=auto;html=1;entryX=1.094;entryY=1.058;entryDx=0;entryDy=0;entryPerimeter=0;" parent="1" source="dmJ20hJk-4laYnwwjy2d-34" target="dmJ20hJk-4laYnwwjy2d-23" edge="1">
          <mxGeometry relative="1" as="geometry">
            <mxPoint x="690" y="330" as="targetPoint" />
            <Array as="points">
              <mxPoint x="730" y="380" />
              <mxPoint x="730" y="327" />
              <mxPoint x="690" y="327" />
            </Array>
          </mxGeometry>
        </mxCell>
        <mxCell id="dmJ20hJk-4laYnwwjy2d-34" value="" style="verticalLabelPosition=bottom;sketch=0;aspect=fixed;html=1;verticalAlign=top;strokeColor=none;align=center;outlineConnect=0;shape=mxgraph.citrix.reporting;" parent="1" vertex="1">
          <mxGeometry x="780" y="350" width="61.5" height="69" as="geometry" />
        </mxCell>
        <mxCell id="dmJ20hJk-4laYnwwjy2d-40" value="Requerimiento 1" style="rounded=1;whiteSpace=wrap;html=1;fillColor=#ffe6cc;strokeColor=#d79b00;" parent="1" vertex="1">
          <mxGeometry x="464.25" y="70" width="409.5" height="30" as="geometry" />
        </mxCell>
        <mxCell id="dmJ20hJk-4laYnwwjy2d-53" value="" style="shape=curlyBracket;whiteSpace=wrap;html=1;rounded=1;flipH=1;labelPosition=right;verticalLabelPosition=middle;align=left;verticalAlign=middle;rotation=-90;" parent="1" vertex="1">
          <mxGeometry x="2244.13" y="65.65" width="20" height="261.25" as="geometry" />
        </mxCell>
        <mxCell id="dmJ20hJk-4laYnwwjy2d-54" value="Capas" style="text;html=1;strokeColor=none;fillColor=none;align=center;verticalAlign=middle;whiteSpace=wrap;rounded=0;" parent="1" vertex="1">
          <mxGeometry x="2196" y="146.27000000000004" width="110" height="30" as="geometry" />
        </mxCell>
        <mxCell id="dmJ20hJk-4laYnwwjy2d-81" value="Requerimiento 2" style="rounded=1;whiteSpace=wrap;html=1;fillColor=#fff2cc;strokeColor=#d6b656;" parent="1" vertex="1">
          <mxGeometry x="2124" y="81.07" width="336" height="30" as="geometry" />
        </mxCell>
        <mxCell id="dmJ20hJk-4laYnwwjy2d-139" style="edgeStyle=orthogonalEdgeStyle;rounded=0;orthogonalLoop=1;jettySize=auto;html=1;entryX=1;entryY=0.5;entryDx=0;entryDy=0;" parent="1" source="dmJ20hJk-4laYnwwjy2d-101" target="dmJ20hJk-4laYnwwjy2d-46" edge="1">
          <mxGeometry relative="1" as="geometry">
            <mxPoint x="2606" y="266.27000000000004" as="targetPoint" />
          </mxGeometry>
        </mxCell>
        <mxCell id="dmJ20hJk-4laYnwwjy2d-101" value="Usuario" style="verticalLabelPosition=bottom;html=1;verticalAlign=top;align=center;strokeColor=none;fillColor=#00BEF2;shape=mxgraph.azure.user;" parent="1" vertex="1">
          <mxGeometry x="2426" y="253.68" width="47.5" height="46" as="geometry" />
        </mxCell>
        <mxCell id="dmJ20hJk-4laYnwwjy2d-105" value="Cockpit" style="text;html=1;strokeColor=none;fillColor=none;align=center;verticalAlign=middle;whiteSpace=wrap;rounded=0;fontSize=15;fontStyle=1" parent="1" vertex="1">
          <mxGeometry x="220.26" y="181.45" width="60" height="30" as="geometry" />
        </mxCell>
        <mxCell id="dmJ20hJk-4laYnwwjy2d-107" value="Sensores Tipo A ,&amp;nbsp;&lt;br&gt;&amp;nbsp; &amp;nbsp; &amp;nbsp; Sensor Tipo A.1&lt;br&gt;&amp;nbsp; &amp;nbsp; &amp;nbsp; Sensor Tipo A.2&lt;br&gt;&amp;nbsp; &amp;nbsp; &amp;nbsp;Sensor Tipo A.3" style="text;html=1;strokeColor=none;fillColor=none;align=center;verticalAlign=middle;whiteSpace=wrap;rounded=0;" parent="1" vertex="1">
          <mxGeometry x="150.43" y="623.66" width="170" height="73" as="geometry" />
        </mxCell>
        <mxCell id="dmJ20hJk-4laYnwwjy2d-108" value="Sensores Tipo B" style="text;html=1;strokeColor=none;fillColor=none;align=center;verticalAlign=middle;whiteSpace=wrap;rounded=0;" parent="1" vertex="1">
          <mxGeometry x="-90" y="340" width="170" height="73" as="geometry" />
        </mxCell>
        <mxCell id="dmJ20hJk-4laYnwwjy2d-109" value="Broker de Mensajeria" style="text;html=1;strokeColor=none;fillColor=none;align=center;verticalAlign=middle;whiteSpace=wrap;rounded=0;" parent="1" vertex="1">
          <mxGeometry x="1192.21" y="710" width="174" height="30" as="geometry" />
        </mxCell>
        <mxCell id="dmJ20hJk-4laYnwwjy2d-119" value="" style="shape=curlyBracket;whiteSpace=wrap;html=1;rounded=1;flipH=1;labelPosition=right;verticalLabelPosition=middle;align=left;verticalAlign=middle;rotation=90;" parent="1" vertex="1">
          <mxGeometry x="1235.75" y="-425" width="20" height="2424.81" as="geometry" />
        </mxCell>
        <mxCell id="dmJ20hJk-4laYnwwjy2d-120" value="Event Driven" style="text;html=1;strokeColor=none;fillColor=none;align=center;verticalAlign=middle;whiteSpace=wrap;rounded=0;" parent="1" vertex="1">
          <mxGeometry x="1198" y="810" width="110" height="30" as="geometry" />
        </mxCell>
        <mxCell id="dmJ20hJk-4laYnwwjy2d-122" value="" style="html=1;verticalLabelPosition=bottom;align=center;labelBackgroundColor=#ffffff;verticalAlign=top;strokeWidth=2;strokeColor=#0080F0;shadow=0;dashed=0;shape=mxgraph.ios7.icons.mail;" parent="1" vertex="1">
          <mxGeometry x="320.43" y="633.66" width="30" height="16.5" as="geometry" />
        </mxCell>
        <mxCell id="dmJ20hJk-4laYnwwjy2d-123" value="Requerimiento 5" style="rounded=1;whiteSpace=wrap;html=1;fillColor=#fff2cc;strokeColor=#d6b656;" parent="1" vertex="1">
          <mxGeometry x="1123" y="840" width="260" height="30" as="geometry" />
        </mxCell>
        <mxCell id="dmJ20hJk-4laYnwwjy2d-49" value="" style="rounded=1;arcSize=10;fillColor=none;gradientColor=none;strokeWidth=2;" parent="1" vertex="1">
          <mxGeometry x="2179.183636363636" y="456.2696551724138" width="146.8181818181818" height="57.93103448275861" as="geometry" />
        </mxCell>
        <mxCell id="dmJ20hJk-4laYnwwjy2d-50" value="" style="image;aspect=fixed;html=1;points=[];align=center;fontSize=12;image=img/lib/azure2/databases/SQL_Database.svg;" parent="1" vertex="1">
          <mxGeometry x="2209.842727272727" y="463.3041379310345" width="27.613636363636367" height="36.81818181818181" as="geometry" />
        </mxCell>
        <mxCell id="dmJ20hJk-4laYnwwjy2d-51" value="Base de Datos" style="text;html=1;strokeColor=none;fillColor=none;align=center;verticalAlign=middle;whiteSpace=wrap;rounded=0;" parent="1" vertex="1">
          <mxGeometry x="2253.4563636363637" y="473.6489655172413" width="51.81818181818181" height="24.827586206896548" as="geometry" />
        </mxCell>
        <mxCell id="dmJ20hJk-4laYnwwjy2d-79" value="Ordenes&lt;br&gt;Operarios&lt;br&gt;Maquinas&lt;br&gt;Inventario&lt;br&gt;Sensores y Tipos de Sensores&lt;br&gt;CorrelaciÃ³n entre sensores" style="text;html=1;strokeColor=none;fillColor=none;align=left;verticalAlign=middle;whiteSpace=wrap;rounded=0;" parent="1" vertex="1">
          <mxGeometry x="2372" y="463.3" width="190" height="90" as="geometry" />
        </mxCell>
        <mxCell id="dmJ20hJk-4laYnwwjy2d-80" value="" style="curved=1;endArrow=classic;html=1;rounded=0;exitX=0.615;exitY=1.148;exitDx=0;exitDy=0;exitPerimeter=0;entryX=0;entryY=0.5;entryDx=0;entryDy=0;" parent="1" source="dmJ20hJk-4laYnwwjy2d-50" target="dmJ20hJk-4laYnwwjy2d-79" edge="1">
          <mxGeometry width="50" height="50" relative="1" as="geometry">
            <mxPoint x="2239.8199999999997" y="661.5799999999998" as="sourcePoint" />
            <mxPoint x="2289.82" y="611.5799999999999" as="targetPoint" />
            <Array as="points">
              <mxPoint x="2209.8199999999997" y="561.5799999999999" />
            </Array>
          </mxGeometry>
        </mxCell>
        <mxCell id="dmJ20hJk-4laYnwwjy2d-46" value="" style="rounded=1;arcSize=10;fillColor=none;gradientColor=none;strokeWidth=2;" parent="1" vertex="1">
          <mxGeometry x="2181.909090909091" y="247.718275862069" width="146.8181818181818" height="57.93103448275861" as="geometry" />
        </mxCell>
        <mxCell id="dmJ20hJk-4laYnwwjy2d-41" value="" style="image;aspect=fixed;html=1;points=[];align=center;fontSize=12;image=img/lib/azure2/app_services/App_Services.svg;" parent="1" vertex="1">
          <mxGeometry x="2156" y="216.27000000000004" width="23.18181818181818" height="23.18181818181818" as="geometry" />
        </mxCell>
        <mxCell id="dmJ20hJk-4laYnwwjy2d-43" value="" style="outlineConnect=0;dashed=0;verticalLabelPosition=bottom;verticalAlign=top;align=center;html=1;shape=mxgraph.aws3.cloudfront;fillColor=#F58536;gradientColor=none;" parent="1" vertex="1">
          <mxGeometry x="2216.454545454545" y="259.30448275862074" width="34.54545454545454" height="34.75862068965517" as="geometry" />
        </mxCell>
        <mxCell id="dmJ20hJk-4laYnwwjy2d-44" value="Front" style="text;html=1;strokeColor=none;fillColor=none;align=center;verticalAlign=middle;whiteSpace=wrap;rounded=0;" parent="1" vertex="1">
          <mxGeometry x="2251" y="264.27000000000004" width="51.81818181818181" height="24.827586206896548" as="geometry" />
        </mxCell>
        <mxCell id="dmJ20hJk-4laYnwwjy2d-45" value="" style="rounded=1;arcSize=10;fillColor=none;gradientColor=none;strokeWidth=2;" parent="1" vertex="1">
          <mxGeometry x="2180.5890909090904" y="317.71758620689656" width="146.8181818181818" height="57.93103448275861" as="geometry" />
        </mxCell>
        <mxCell id="dmJ20hJk-4laYnwwjy2d-47" value="" style="sketch=0;points=[[0,0,0],[0.25,0,0],[0.5,0,0],[0.75,0,0],[1,0,0],[0,1,0],[0.25,1,0],[0.5,1,0],[0.75,1,0],[1,1,0],[0,0.25,0],[0,0.5,0],[0,0.75,0],[1,0.25,0],[1,0.5,0],[1,0.75,0]];outlineConnect=0;fontColor=#232F3E;gradientColor=#FF4F8B;gradientDirection=north;fillColor=#BC1356;strokeColor=#ffffff;dashed=0;verticalLabelPosition=bottom;verticalAlign=top;align=center;html=1;fontSize=12;fontStyle=0;aspect=fixed;shape=mxgraph.aws4.resourceIcon;resIcon=mxgraph.aws4.api_gateway;" parent="1" vertex="1">
          <mxGeometry x="2213" y="325.718275862069" width="32.72727272727273" height="32.72727272727273" as="geometry" />
        </mxCell>
        <mxCell id="dmJ20hJk-4laYnwwjy2d-48" value="BackEnd" style="text;html=1;strokeColor=none;fillColor=none;align=center;verticalAlign=middle;whiteSpace=wrap;rounded=0;" parent="1" vertex="1">
          <mxGeometry x="2251" y="331.51137931034486" width="51.81818181818181" height="24.827586206896548" as="geometry" />
        </mxCell>
        <mxCell id="dmJ20hJk-4laYnwwjy2d-230" style="edgeStyle=orthogonalEdgeStyle;rounded=0;orthogonalLoop=1;jettySize=auto;html=1;entryX=1;entryY=0.25;entryDx=0;entryDy=0;" parent="1" source="dmJ20hJk-4laYnwwjy2d-134" target="dmJ20hJk-4laYnwwjy2d-111" edge="1">
          <mxGeometry relative="1" as="geometry" />
        </mxCell>
        <mxCell id="dmJ20hJk-4laYnwwjy2d-134" value="" style="rounded=1;arcSize=10;fillColor=none;gradientColor=none;strokeWidth=2;" parent="1" vertex="1">
          <mxGeometry x="2180.5890909090904" y="387.33758620689656" width="146.8181818181818" height="57.93103448275861" as="geometry" />
        </mxCell>
        <mxCell id="dmJ20hJk-4laYnwwjy2d-135" value="" style="sketch=0;points=[[0,0,0],[0.25,0,0],[0.5,0,0],[0.75,0,0],[1,0,0],[0,1,0],[0.25,1,0],[0.5,1,0],[0.75,1,0],[1,1,0],[0,0.25,0],[0,0.5,0],[0,0.75,0],[1,0.25,0],[1,0.5,0],[1,0.75,0]];outlineConnect=0;fontColor=#232F3E;gradientColor=#FF4F8B;gradientDirection=north;fillColor=#BC1356;strokeColor=#ffffff;dashed=0;verticalLabelPosition=bottom;verticalAlign=top;align=center;html=1;fontSize=12;fontStyle=0;aspect=fixed;shape=mxgraph.aws4.resourceIcon;resIcon=mxgraph.aws4.api_gateway;" parent="1" vertex="1">
          <mxGeometry x="2200.68" y="393.958275862069" width="32.72727272727273" height="32.72727272727273" as="geometry" />
        </mxCell>
        <mxCell id="dmJ20hJk-4laYnwwjy2d-136" value="Integraciones" style="text;html=1;strokeColor=none;fillColor=none;align=center;verticalAlign=middle;whiteSpace=wrap;rounded=0;" parent="1" vertex="1">
          <mxGeometry x="2249.68" y="399.7513793103449" width="51.81818181818181" height="24.827586206896548" as="geometry" />
        </mxCell>
        <mxCell id="dmJ20hJk-4laYnwwjy2d-140" value="Requerimiento 3" style="rounded=1;whiteSpace=wrap;html=1;fillColor=#ffe6cc;strokeColor=#d79b00;" parent="1" vertex="1">
          <mxGeometry x="286.88" y="182" width="114.75" height="30" as="geometry" />
        </mxCell>
        <mxCell id="dmJ20hJk-4laYnwwjy2d-141" value="Machine Learning Parallel Step" style="image;aspect=fixed;html=1;points=[];align=center;fontSize=12;image=img/lib/azure2/ai_machine_learning/Machine_Learning.svg;" parent="1" vertex="1">
          <mxGeometry x="1268.68" y="243.24" width="38.59" height="41" as="geometry" />
        </mxCell>
        <mxCell id="dmJ20hJk-4laYnwwjy2d-143" value="Machine&amp;nbsp; Learning" style="text;html=1;strokeColor=none;fillColor=none;align=center;verticalAlign=middle;whiteSpace=wrap;rounded=0;" parent="1" vertex="1">
          <mxGeometry x="926.59" y="241" width="130" height="30" as="geometry" />
        </mxCell>
        <mxCell id="dmJ20hJk-4laYnwwjy2d-173" style="edgeStyle=orthogonalEdgeStyle;rounded=0;orthogonalLoop=1;jettySize=auto;html=1;entryX=0.5;entryY=0;entryDx=0;entryDy=0;" parent="1" edge="1">
          <mxGeometry relative="1" as="geometry">
            <mxPoint x="1617.34" y="318.50000000000006" as="sourcePoint" />
            <mxPoint x="1617.3400000000004" y="383.07" as="targetPoint" />
          </mxGeometry>
        </mxCell>
        <mxCell id="dmJ20hJk-4laYnwwjy2d-144" value="" style="image;aspect=fixed;html=1;points=[];align=center;fontSize=12;image=img/lib/azure2/ai_machine_learning/Machine_Learning_Studio_Classic_Web_Services.svg;" parent="1" vertex="1">
          <mxGeometry x="1597.34" y="258.50000000000006" width="68" height="68" as="geometry" />
        </mxCell>
        <mxCell id="dmJ20hJk-4laYnwwjy2d-151" style="edgeStyle=orthogonalEdgeStyle;rounded=0;orthogonalLoop=1;jettySize=auto;html=1;" parent="1" edge="1">
          <mxGeometry relative="1" as="geometry">
            <mxPoint x="1890" y="314.52000000000004" as="sourcePoint" />
            <mxPoint x="1890.993333333334" y="379.0899999999999" as="targetPoint" />
          </mxGeometry>
        </mxCell>
        <mxCell id="dmJ20hJk-4laYnwwjy2d-145" value="" style="image;aspect=fixed;html=1;points=[];align=center;fontSize=12;image=img/lib/azure2/ai_machine_learning/Machine_Learning_Studio_Classic_Web_Services.svg;" parent="1" vertex="1">
          <mxGeometry x="1870" y="255.9700000000001" width="68" height="68" as="geometry" />
        </mxCell>
        <mxCell id="dmJ20hJk-4laYnwwjy2d-226" style="edgeStyle=orthogonalEdgeStyle;rounded=0;orthogonalLoop=1;jettySize=auto;html=1;entryX=0.825;entryY=0.012;entryDx=0;entryDy=0;entryPerimeter=0;" parent="1" source="dmJ20hJk-4laYnwwjy2d-148" target="dmJ20hJk-4laYnwwjy2d-111" edge="1">
          <mxGeometry relative="1" as="geometry">
            <Array as="points">
              <mxPoint x="1969" y="610" />
              <mxPoint x="1791" y="610" />
            </Array>
          </mxGeometry>
        </mxCell>
        <mxCell id="dmJ20hJk-4laYnwwjy2d-148" value="CreaciÃ³n Orden de TRabajo" style="text;html=1;strokeColor=none;fillColor=none;align=center;verticalAlign=middle;whiteSpace=wrap;rounded=0;" parent="1" vertex="1">
          <mxGeometry x="1883.9299999999998" y="481.65000000000003" width="170" height="73" as="geometry" />
        </mxCell>
        <mxCell id="dmJ20hJk-4laYnwwjy2d-215" style="edgeStyle=orthogonalEdgeStyle;rounded=0;orthogonalLoop=1;jettySize=auto;html=1;" parent="1" source="dmJ20hJk-4laYnwwjy2d-149" target="dmJ20hJk-4laYnwwjy2d-213" edge="1">
          <mxGeometry relative="1" as="geometry">
            <Array as="points">
              <mxPoint x="1932" y="406" />
            </Array>
          </mxGeometry>
        </mxCell>
        <mxCell id="dmJ20hJk-4laYnwwjy2d-150" value="" style="sketch=0;points=[[0,0,0],[0.25,0,0],[0.5,0,0],[0.75,0,0],[1,0,0],[0,1,0],[0.25,1,0],[0.5,1,0],[0.75,1,0],[1,1,0],[0,0.25,0],[0,0.5,0],[0,0.75,0],[1,0.25,0],[1,0.5,0],[1,0.75,0]];outlineConnect=0;fontColor=#232F3E;gradientColor=#FF4F8B;gradientDirection=north;fillColor=#BC1356;strokeColor=#ffffff;dashed=0;verticalLabelPosition=bottom;verticalAlign=top;align=center;html=1;fontSize=12;fontStyle=0;aspect=fixed;shape=mxgraph.aws4.resourceIcon;resIcon=mxgraph.aws4.api_gateway;" parent="1" vertex="1">
          <mxGeometry x="1847.4999999999998" y="504.41827586206904" width="32.72727272727273" height="32.72727272727273" as="geometry" />
        </mxCell>
        <mxCell id="dmJ20hJk-4laYnwwjy2d-155" value="Algoritmo&amp;nbsp;&lt;span style=&quot;background-color: rgb(255, 255, 255);&quot;&gt;Inteligente&amp;nbsp;&lt;/span&gt;&lt;br style=&quot;border-color: var(--border-color);&quot;&gt;&lt;span style=&quot;background-color: rgb(255, 255, 255);&quot;&gt;Predictivo&amp;nbsp;&lt;/span&gt;&lt;span style=&quot;background-color: rgb(255, 255, 255);&quot;&gt;2&lt;/span&gt;" style="text;html=1;strokeColor=none;fillColor=none;align=center;verticalAlign=middle;whiteSpace=wrap;rounded=0;" parent="1" vertex="1">
          <mxGeometry x="1938" y="250.69" width="130" height="60" as="geometry" />
        </mxCell>
        <mxCell id="dmJ20hJk-4laYnwwjy2d-178" style="edgeStyle=orthogonalEdgeStyle;rounded=0;orthogonalLoop=1;jettySize=auto;html=1;entryX=0.125;entryY=0.51;entryDx=0;entryDy=0;entryPerimeter=0;" parent="1" source="dmJ20hJk-4laYnwwjy2d-111" target="dmJ20hJk-4laYnwwjy2d-177" edge="1">
          <mxGeometry relative="1" as="geometry" />
        </mxCell>
        <mxCell id="dmJ20hJk-4laYnwwjy2d-111" value="" style="rounded=1;whiteSpace=wrap;html=1;fillColor=#dae8fc;strokeColor=#6c8ebf;" parent="1" vertex="1">
          <mxGeometry x="520.43" y="629.16" width="1539.57" height="69" as="geometry" />
        </mxCell>
        <mxCell id="dmJ20hJk-4laYnwwjy2d-112" value="" style="image;sketch=0;aspect=fixed;html=1;points=[];align=center;fontSize=12;image=img/lib/mscae/Service_Bus.svg;" parent="1" vertex="1">
          <mxGeometry x="550.43" y="657.1899999999999" width="30" height="30" as="geometry" />
        </mxCell>
        <mxCell id="dmJ20hJk-4laYnwwjy2d-113" value="" style="image;sketch=0;aspect=fixed;html=1;points=[];align=center;fontSize=12;image=img/lib/mscae/Service_Bus.svg;" parent="1" vertex="1">
          <mxGeometry x="614.43" y="657.1899999999999" width="30" height="30" as="geometry" />
        </mxCell>
        <mxCell id="dmJ20hJk-4laYnwwjy2d-114" value="" style="image;sketch=0;aspect=fixed;html=1;points=[];align=center;fontSize=12;image=img/lib/mscae/Service_Bus.svg;" parent="1" vertex="1">
          <mxGeometry x="680.43" y="657.1899999999999" width="30" height="30" as="geometry" />
        </mxCell>
        <mxCell id="dmJ20hJk-4laYnwwjy2d-115" value="" style="image;sketch=0;aspect=fixed;html=1;points=[];align=center;fontSize=12;image=img/lib/mscae/Service_Bus.svg;" parent="1" vertex="1">
          <mxGeometry x="750.43" y="657.1899999999999" width="30" height="30" as="geometry" />
        </mxCell>
        <mxCell id="dmJ20hJk-4laYnwwjy2d-162" value="" style="image;sketch=0;aspect=fixed;html=1;points=[];align=center;fontSize=12;image=img/lib/mscae/Service_Bus.svg;" parent="1" vertex="1">
          <mxGeometry x="817.43" y="657.1899999999999" width="30" height="30" as="geometry" />
        </mxCell>
        <mxCell id="dmJ20hJk-4laYnwwjy2d-163" value="" style="image;sketch=0;aspect=fixed;html=1;points=[];align=center;fontSize=12;image=img/lib/mscae/Service_Bus.svg;" parent="1" vertex="1">
          <mxGeometry x="870.43" y="657.1899999999999" width="30" height="30" as="geometry" />
        </mxCell>
        <mxCell id="dmJ20hJk-4laYnwwjy2d-164" value="" style="image;sketch=0;aspect=fixed;html=1;points=[];align=center;fontSize=12;image=img/lib/mscae/Service_Bus.svg;" parent="1" vertex="1">
          <mxGeometry x="934.43" y="657.1899999999999" width="30" height="30" as="geometry" />
        </mxCell>
        <mxCell id="dmJ20hJk-4laYnwwjy2d-165" value="" style="image;sketch=0;aspect=fixed;html=1;points=[];align=center;fontSize=12;image=img/lib/mscae/Service_Bus.svg;" parent="1" vertex="1">
          <mxGeometry x="1000.43" y="657.1899999999999" width="30" height="30" as="geometry" />
        </mxCell>
        <mxCell id="dmJ20hJk-4laYnwwjy2d-166" value="" style="image;sketch=0;aspect=fixed;html=1;points=[];align=center;fontSize=12;image=img/lib/mscae/Service_Bus.svg;" parent="1" vertex="1">
          <mxGeometry x="1070.43" y="657.1899999999999" width="30" height="30" as="geometry" />
        </mxCell>
        <mxCell id="dmJ20hJk-4laYnwwjy2d-167" value="" style="image;sketch=0;aspect=fixed;html=1;points=[];align=center;fontSize=12;image=img/lib/mscae/Service_Bus.svg;" parent="1" vertex="1">
          <mxGeometry x="1133.41" y="657.1899999999999" width="30" height="30" as="geometry" />
        </mxCell>
        <mxCell id="dmJ20hJk-4laYnwwjy2d-169" value="Algoritmo&amp;nbsp;&lt;span style=&quot;background-color: rgb(255, 255, 255);&quot;&gt;Inteligente&amp;nbsp;&lt;/span&gt;&lt;br style=&quot;border-color: var(--border-color);&quot;&gt;&lt;span style=&quot;background-color: rgb(255, 255, 255);&quot;&gt;Predictivo 1&lt;/span&gt;" style="text;html=1;strokeColor=none;fillColor=none;align=center;verticalAlign=middle;whiteSpace=wrap;rounded=0;" parent="1" vertex="1">
          <mxGeometry x="1687.1999999999998" y="258.5" width="130" height="60" as="geometry" />
        </mxCell>
        <mxCell id="dmJ20hJk-4laYnwwjy2d-170" value="PredicciÃ³n de fallo lÃ­nea de trabajo" style="text;html=1;strokeColor=none;fillColor=none;align=center;verticalAlign=middle;whiteSpace=wrap;rounded=0;" parent="1" vertex="1">
          <mxGeometry x="1654" y="482.68" width="103.27" height="73" as="geometry" />
        </mxCell>
        <mxCell id="dmJ20hJk-4laYnwwjy2d-228" style="edgeStyle=orthogonalEdgeStyle;rounded=0;orthogonalLoop=1;jettySize=auto;html=1;entryX=0.87;entryY=0.65;entryDx=0;entryDy=0;entryPerimeter=0;" parent="1" source="dmJ20hJk-4laYnwwjy2d-177" target="dmJ20hJk-4laYnwwjy2d-101" edge="1">
          <mxGeometry relative="1" as="geometry">
            <Array as="points">
              <mxPoint x="2600" y="664" />
              <mxPoint x="2600" y="284" />
            </Array>
          </mxGeometry>
        </mxCell>
        <mxCell id="dmJ20hJk-4laYnwwjy2d-177" value="NotificaciÃ³n" style="outlineConnect=0;dashed=0;verticalLabelPosition=bottom;verticalAlign=top;align=center;html=1;shape=mxgraph.aws3.email;fillColor=#D9A741;gradientColor=none;" parent="1" vertex="1">
          <mxGeometry x="2264.13" y="633.66" width="81" height="61.5" as="geometry" />
        </mxCell>
        <mxCell id="dmJ20hJk-4laYnwwjy2d-183" value="Requerimiento 6" style="rounded=1;whiteSpace=wrap;html=1;fillColor=#ffe6cc;strokeColor=#d79b00;" parent="1" vertex="1">
          <mxGeometry x="920.5" y="81.07" width="1159.5" height="30" as="geometry" />
        </mxCell>
        <mxCell id="dmJ20hJk-4laYnwwjy2d-195" style="edgeStyle=orthogonalEdgeStyle;rounded=0;orthogonalLoop=1;jettySize=auto;html=1;entryX=0;entryY=0.5;entryDx=0;entryDy=0;exitX=1;exitY=0.5;exitDx=0;exitDy=0;" parent="1" source="dmJ20hJk-4laYnwwjy2d-184" target="dmJ20hJk-4laYnwwjy2d-194" edge="1">
          <mxGeometry relative="1" as="geometry">
            <mxPoint x="1052.2699999999995" y="373.62" as="sourcePoint" />
          </mxGeometry>
        </mxCell>
        <mxCell id="dmJ20hJk-4laYnwwjy2d-184" value="" style="rounded=1;arcSize=10;fillColor=none;gradientColor=none;strokeWidth=2;fontStyle=1" parent="1" vertex="1">
          <mxGeometry x="936.59" y="270" width="93.41" height="150" as="geometry" />
        </mxCell>
        <mxCell id="dmJ20hJk-4laYnwwjy2d-185" value="staging &lt;br&gt;area&lt;br&gt;" style="image;aspect=fixed;html=1;points=[];align=center;fontSize=12;image=img/lib/azure2/databases/SQL_Database.svg;" parent="1" vertex="1">
          <mxGeometry x="963.05" y="302.06" width="40.5" height="54" as="geometry" />
        </mxCell>
        <mxCell id="dmJ20hJk-4laYnwwjy2d-188" value="" style="endArrow=classic;startArrow=classic;html=1;rounded=0;" parent="1" edge="1">
          <mxGeometry width="50" height="50" relative="1" as="geometry">
            <mxPoint x="1116.68" y="318.8" as="sourcePoint" />
            <mxPoint x="1458.68" y="317.8" as="targetPoint" />
          </mxGeometry>
        </mxCell>
        <mxCell id="dmJ20hJk-4laYnwwjy2d-189" value="Model 1" style="sketch=0;outlineConnect=0;fontColor=#232F3E;gradientColor=none;fillColor=#067F68;strokeColor=none;dashed=0;verticalLabelPosition=bottom;verticalAlign=top;align=center;html=1;fontSize=12;fontStyle=0;aspect=fixed;pointerEvents=1;shape=mxgraph.aws4.sagemaker_model;" parent="1" vertex="1">
          <mxGeometry x="1113.93" y="341.11" width="41.75" height="41.75" as="geometry" />
        </mxCell>
        <mxCell id="dmJ20hJk-4laYnwwjy2d-190" value="Model 2" style="sketch=0;outlineConnect=0;fontColor=#232F3E;gradientColor=none;fillColor=#067F68;strokeColor=none;dashed=0;verticalLabelPosition=bottom;verticalAlign=top;align=center;html=1;fontSize=12;fontStyle=0;aspect=fixed;pointerEvents=1;shape=mxgraph.aws4.sagemaker_model;" parent="1" vertex="1">
          <mxGeometry x="1178.68" y="341.86" width="41.75" height="41.75" as="geometry" />
        </mxCell>
        <mxCell id="dmJ20hJk-4laYnwwjy2d-191" value="Model 3" style="sketch=0;outlineConnect=0;fontColor=#232F3E;gradientColor=none;fillColor=#067F68;strokeColor=none;dashed=0;verticalLabelPosition=bottom;verticalAlign=top;align=center;html=1;fontSize=12;fontStyle=0;aspect=fixed;pointerEvents=1;shape=mxgraph.aws4.sagemaker_model;" parent="1" vertex="1">
          <mxGeometry x="1238.93" y="339.86" width="41.75" height="41.75" as="geometry" />
        </mxCell>
        <mxCell id="dmJ20hJk-4laYnwwjy2d-192" value="" style="endArrow=none;dashed=1;html=1;dashPattern=1 3;strokeWidth=2;rounded=0;" parent="1" edge="1">
          <mxGeometry width="50" height="50" relative="1" as="geometry">
            <mxPoint x="1302.68" y="362.8" as="sourcePoint" />
            <mxPoint x="1374.68" y="362.8" as="targetPoint" />
          </mxGeometry>
        </mxCell>
        <mxCell id="dmJ20hJk-4laYnwwjy2d-193" value="Model N" style="sketch=0;outlineConnect=0;fontColor=#232F3E;gradientColor=none;fillColor=#067F68;strokeColor=none;dashed=0;verticalLabelPosition=bottom;verticalAlign=top;align=center;html=1;fontSize=12;fontStyle=0;aspect=fixed;pointerEvents=1;shape=mxgraph.aws4.sagemaker_model;" parent="1" vertex="1">
          <mxGeometry x="1388.68" y="337.34000000000003" width="41.75" height="41.75" as="geometry" />
        </mxCell>
        <mxCell id="dmJ20hJk-4laYnwwjy2d-198" value="Entregnimiento de Modelos" style="verticalLabelPosition=bottom;html=1;verticalAlign=top;align=center;strokeColor=none;fillColor=#00BEF2;shape=mxgraph.azure.user;" parent="1" vertex="1">
          <mxGeometry x="1163.41" y="492.65" width="47.5" height="46" as="geometry" />
        </mxCell>
        <mxCell id="dmJ20hJk-4laYnwwjy2d-205" value="SeleciÃ³n de algoritmo" style="image;aspect=fixed;html=1;points=[];align=center;fontSize=12;image=img/lib/azure2/ai_machine_learning/Machine_Learning_Studio_Classic_Web_Services.svg;" parent="1" vertex="1">
          <mxGeometry x="1314.9999999999998" y="481.65" width="68" height="68" as="geometry" />
        </mxCell>
        <mxCell id="dmJ20hJk-4laYnwwjy2d-214" style="edgeStyle=orthogonalEdgeStyle;rounded=0;orthogonalLoop=1;jettySize=auto;html=1;" parent="1" source="dmJ20hJk-4laYnwwjy2d-208" target="dmJ20hJk-4laYnwwjy2d-212" edge="1">
          <mxGeometry relative="1" as="geometry">
            <Array as="points">
              <mxPoint x="1685" y="420" />
            </Array>
          </mxGeometry>
        </mxCell>
        <mxCell id="dmJ20hJk-4laYnwwjy2d-227" style="edgeStyle=orthogonalEdgeStyle;rounded=0;orthogonalLoop=1;jettySize=auto;html=1;entryX=0.707;entryY=-0.017;entryDx=0;entryDy=0;entryPerimeter=0;" parent="1" source="dmJ20hJk-4laYnwwjy2d-208" target="dmJ20hJk-4laYnwwjy2d-111" edge="1">
          <mxGeometry relative="1" as="geometry">
            <Array as="points">
              <mxPoint x="1685" y="610" />
              <mxPoint x="1609" y="610" />
            </Array>
          </mxGeometry>
        </mxCell>
        <mxCell id="dmJ20hJk-4laYnwwjy2d-208" value="" style="rounded=1;arcSize=10;fillColor=none;gradientColor=none;strokeWidth=2;" parent="1" vertex="1">
          <mxGeometry x="1570" y="491.82" width="230" height="57.93" as="geometry" />
        </mxCell>
        <mxCell id="dmJ20hJk-4laYnwwjy2d-209" value="" style="sketch=0;points=[[0,0,0],[0.25,0,0],[0.5,0,0],[0.75,0,0],[1,0,0],[0,1,0],[0.25,1,0],[0.5,1,0],[0.75,1,0],[1,1,0],[0,0.25,0],[0,0.5,0],[0,0.75,0],[1,0.25,0],[1,0.5,0],[1,0.75,0]];outlineConnect=0;fontColor=#232F3E;gradientColor=#FF4F8B;gradientDirection=north;fillColor=#BC1356;strokeColor=#ffffff;dashed=0;verticalLabelPosition=bottom;verticalAlign=top;align=center;html=1;fontSize=12;fontStyle=0;aspect=fixed;shape=mxgraph.aws4.resourceIcon;resIcon=mxgraph.aws4.api_gateway;" parent="1" vertex="1">
          <mxGeometry x="1600.3" y="506.01827586206906" width="32.72727272727273" height="32.72727272727273" as="geometry" />
        </mxCell>
        <mxCell id="dmJ20hJk-4laYnwwjy2d-212" value="staging &lt;br&gt;area&lt;br&gt;" style="image;aspect=fixed;html=1;points=[];align=center;fontSize=12;image=img/lib/azure2/databases/SQL_Database.svg;" parent="1" vertex="1">
          <mxGeometry x="1597.34" y="383.61" width="40.5" height="54" as="geometry" />
        </mxCell>
        <mxCell id="dmJ20hJk-4laYnwwjy2d-213" value="staging &lt;br&gt;area&lt;br&gt;" style="image;aspect=fixed;html=1;points=[];align=center;fontSize=12;image=img/lib/azure2/databases/SQL_Database.svg;" parent="1" vertex="1">
          <mxGeometry x="1870" y="378.93" width="40.5" height="54" as="geometry" />
        </mxCell>
        <mxCell id="dmJ20hJk-4laYnwwjy2d-216" value="" style="image;sketch=0;aspect=fixed;html=1;points=[];align=center;fontSize=12;image=img/lib/mscae/Service_Bus.svg;" parent="1" vertex="1">
          <mxGeometry x="1200.21" y="657.1899999999999" width="30" height="30" as="geometry" />
        </mxCell>
        <mxCell id="dmJ20hJk-4laYnwwjy2d-217" value="" style="image;sketch=0;aspect=fixed;html=1;points=[];align=center;fontSize=12;image=img/lib/mscae/Service_Bus.svg;" parent="1" vertex="1">
          <mxGeometry x="1264.21" y="657.1899999999999" width="30" height="30" as="geometry" />
        </mxCell>
        <mxCell id="dmJ20hJk-4laYnwwjy2d-218" value="" style="image;sketch=0;aspect=fixed;html=1;points=[];align=center;fontSize=12;image=img/lib/mscae/Service_Bus.svg;" parent="1" vertex="1">
          <mxGeometry x="1330.21" y="657.1899999999999" width="30" height="30" as="geometry" />
        </mxCell>
        <mxCell id="dmJ20hJk-4laYnwwjy2d-219" value="" style="image;sketch=0;aspect=fixed;html=1;points=[];align=center;fontSize=12;image=img/lib/mscae/Service_Bus.svg;" parent="1" vertex="1">
          <mxGeometry x="1400.21" y="657.1899999999999" width="30" height="30" as="geometry" />
        </mxCell>
        <mxCell id="dmJ20hJk-4laYnwwjy2d-220" value="" style="image;sketch=0;aspect=fixed;html=1;points=[];align=center;fontSize=12;image=img/lib/mscae/Service_Bus.svg;" parent="1" vertex="1">
          <mxGeometry x="1467.21" y="657.1899999999999" width="30" height="30" as="geometry" />
        </mxCell>
        <mxCell id="dmJ20hJk-4laYnwwjy2d-221" value="" style="image;sketch=0;aspect=fixed;html=1;points=[];align=center;fontSize=12;image=img/lib/mscae/Service_Bus.svg;" parent="1" vertex="1">
          <mxGeometry x="1520.21" y="657.1899999999999" width="30" height="30" as="geometry" />
        </mxCell>
        <mxCell id="dmJ20hJk-4laYnwwjy2d-222" value="" style="image;sketch=0;aspect=fixed;html=1;points=[];align=center;fontSize=12;image=img/lib/mscae/Service_Bus.svg;" parent="1" vertex="1">
          <mxGeometry x="1584.21" y="657.1899999999999" width="30" height="30" as="geometry" />
        </mxCell>
        <mxCell id="dmJ20hJk-4laYnwwjy2d-223" value="" style="image;sketch=0;aspect=fixed;html=1;points=[];align=center;fontSize=12;image=img/lib/mscae/Service_Bus.svg;" parent="1" vertex="1">
          <mxGeometry x="1650.21" y="657.1899999999999" width="30" height="30" as="geometry" />
        </mxCell>
        <mxCell id="dmJ20hJk-4laYnwwjy2d-224" value="" style="image;sketch=0;aspect=fixed;html=1;points=[];align=center;fontSize=12;image=img/lib/mscae/Service_Bus.svg;" parent="1" vertex="1">
          <mxGeometry x="1720.21" y="657.1899999999999" width="30" height="30" as="geometry" />
        </mxCell>
        <mxCell id="dmJ20hJk-4laYnwwjy2d-225" value="" style="image;sketch=0;aspect=fixed;html=1;points=[];align=center;fontSize=12;image=img/lib/mscae/Service_Bus.svg;" parent="1" vertex="1">
          <mxGeometry x="1783.19" y="657.1899999999999" width="30" height="30" as="geometry" />
        </mxCell>
        <mxCell id="dmJ20hJk-4laYnwwjy2d-231" value="SuscripciÃ³n a eventos de notificaciÃ³n" style="text;html=1;strokeColor=none;fillColor=none;align=center;verticalAlign=middle;whiteSpace=wrap;rounded=0;" parent="1" vertex="1">
          <mxGeometry x="2130" y="603.66" width="60" height="30" as="geometry" />
        </mxCell>
      </root>
    </mxGraphModel>
  </diagram>
</mxfile>
